# xmcd
#
# Track frame offsets:
#	187
#	27520
#	38602
#	58617
#	80120
#
# Disc length: 1375 seconds
#
# Revision: 1
# Processed by: cddbd v1.5.1PL0 Copyright (c) Steve Scherf et al.
# Submitted via: CDex 1.50Beta5
#
DISCID=3a055d05
DTITLE=Adi - Softly
DYEAR=1992
DGENRE=Age
TTITLE0=闇の長い人
TTITLE1=マチルダの樹にしるせ
TTITLE2=Nintos
TTITLE3=Softly
TTITLE4=Walk On Air
EXTD=
EXTT0=
EXTT1=
EXTT2=
EXTT3=
EXTT4=
PLAYORDER=
